# Blender v3.1.2 OBJ File: ''
# www.blender.org
mtllib scaledcpu.mtl
o SM_Computer_3B_Internal
v -1.000000 3.800001 1.850001
v -0.852890 3.432785 1.850001
v -0.852890 3.658429 1.850001
v -1.000000 3.800001 1.850001
v -0.852890 3.278791 1.850001
v -0.852890 3.432785 1.850001
v 0.637106 3.234368 1.850001
v 1.000000 3.800001 1.850001
v 0.637106 3.278791 1.850001
v -1.000000 3.800001 1.850001
v -0.852890 3.234368 1.850001
v -0.852890 3.278791 1.850001
v -1.000000 0.000000 -1.850000
v -1.000000 3.800001 -1.850000
v 1.000000 0.000000 -1.850000
v 1.000000 3.800001 -1.850000
v -1.000000 -0.000000 1.850000
v -1.000000 3.800001 1.850001
v -1.000000 0.000000 -1.850000
v -1.000000 3.800001 -1.850000
v 1.000000 -0.000000 1.850000
v 1.000000 3.800001 -1.850000
v 1.000000 3.800001 1.850001
v 1.000000 0.000000 -1.850000
v 0.626660 3.641841 1.815622
v -0.842445 3.641841 1.815622
v -0.842445 3.449373 1.815622
v 0.626660 3.449373 1.815622
v -0.677853 3.039032 1.825291
v 0.360139 2.868132 1.825291
v 0.354606 3.039032 1.825291
v -0.683454 2.868131 1.825291
v -0.852890 3.432785 1.850001
v 0.637106 3.432785 1.850001
v 0.626660 3.449373 1.815622
v -0.842445 3.449373 1.815622
v 0.637106 3.432785 1.850001
v 0.637106 3.658429 1.850001
v 0.626660 3.641841 1.815622
v 0.626660 3.449373 1.815622
v 0.637106 3.658429 1.850001
v -0.852890 3.658429 1.850001
v -0.842445 3.641841 1.815622
v 0.626660 3.641841 1.815622
v -0.852890 3.658429 1.850001
v -0.852890 3.432785 1.850001
v -0.842445 3.449373 1.815622
v -0.842445 3.641841 1.815622
v -0.683454 2.868131 1.850001
v 0.360139 2.868132 1.850001
v 0.360139 2.868132 1.825291
v -0.683454 2.868131 1.825291
v 0.360139 2.868132 1.850001
v 0.354606 3.039032 1.850001
v 0.354606 3.039032 1.825291
v 0.360139 2.868132 1.825291
v 0.354606 3.039032 1.850001
v -0.677853 3.039032 1.850001
v -0.677853 3.039032 1.825291
v 0.354606 3.039032 1.825291
v -0.683454 2.868131 1.825291
v -0.677853 3.039032 1.850001
v -0.683454 2.868131 1.850001
v -0.677853 3.039032 1.825291
v 1.000000 3.800001 1.850001
v 1.000000 3.800001 -1.850000
v 0.637106 3.800001 1.850001
v -1.000000 3.800001 -1.850000
v -0.852890 3.800001 1.850001
v -1.000000 3.800001 1.850001
v 0.637106 3.432785 1.850001
v 1.000000 3.800001 1.850001
v 0.637106 3.658429 1.850001
v 0.637106 3.800001 1.850001
v -0.852890 3.658429 1.850001
v -0.852890 3.800001 1.850001
v -1.000000 3.800001 1.850001
v -0.677853 3.039032 1.850001
v -0.852890 3.278791 1.850001
v -0.852890 3.234368 1.850001
v -0.852890 3.432785 1.850001
v 0.354606 3.039032 1.850001
v 0.637106 3.432785 1.850001
v 0.637106 3.278791 1.850001
v 1.000000 3.800001 1.850001
v 0.637106 3.234368 1.850001
v -0.852890 2.868131 1.850001
v -0.677853 3.039032 1.850001
v -0.852890 3.234368 1.850001
v -0.683454 2.868131 1.850001
v -1.000000 3.800001 1.850001
v -0.852890 3.234368 1.850001
v -1.000000 -0.000000 1.850000
v -0.852890 -0.000000 1.850000
v 0.360139 2.868132 1.850001
v 0.637106 -0.000000 1.850000
v 0.637106 2.868131 1.850001
v 0.354606 3.039032 1.850001
v 0.637106 3.234368 1.850001
v 1.000000 -0.000000 1.850000
v 1.000000 3.800001 1.850001
v 0.637106 3.234368 1.850001
vt 0.632324 0.906372
vt 0.632812 0.904358
vt 0.632812 0.905579
vt 0.632324 0.906372
vt 0.632812 0.903503
vt 0.632812 0.904358
vt 0.640625 0.903137
vt 0.643066 0.906189
vt 0.640625 0.903381
vt 0.632324 0.906372
vt 0.632812 0.903259
vt 0.632812 0.903503
vt 0.643066 0.906189
vt 0.643066 0.884949
vt 0.654297 0.906189
vt 0.654297 0.884949
vt 0.675293 0.884949
vt 0.675293 0.906189
vt 0.654785 0.884949
vt 0.654785 0.906189
vt 0.657715 0.906372
vt 0.678223 0.927673
vt 0.657715 0.927673
vt 0.678223 0.906372
vt 0.781250 0.903503
vt 0.781250 0.911682
vt 0.780273 0.911682
vt 0.780273 0.903503
vt 0.851074 0.966431
vt 0.850098 0.960632
vt 0.851074 0.960663
vt 0.850098 0.966461
vt 0.645020 0.914734
vt 0.645020 0.906372
vt 0.645020 0.906433
vt 0.645020 0.914673
vt 0.637207 0.906372
vt 0.637207 0.907654
vt 0.637207 0.907532
vt 0.637207 0.906494
vt 0.644531 0.906372
vt 0.644531 0.914734
vt 0.644043 0.914673
vt 0.644043 0.906433
vt 0.636719 0.907654
vt 0.636719 0.906372
vt 0.636719 0.906494
vt 0.636719 0.907532
vt 0.638184 0.912231
vt 0.638184 0.906372
vt 0.638184 0.906372
vt 0.638184 0.912231
vt 0.635742 0.906372
vt 0.635742 0.907349
vt 0.635742 0.907349
vt 0.635742 0.906372
vt 0.637695 0.906372
vt 0.637695 0.912170
vt 0.637695 0.912170
vt 0.637695 0.906372
vt 0.636230 0.906372
vt 0.636230 0.907349
vt 0.636230 0.906372
vt 0.636230 0.907349
vt 0.657227 0.906372
vt 0.657227 0.927124
vt 0.655273 0.906372
vt 0.645996 0.927124
vt 0.646973 0.906372
vt 0.645996 0.906372
vt 0.640625 0.904236
vt 0.643066 0.906189
vt 0.640625 0.905396
vt 0.640625 0.906189
vt 0.632812 0.905579
vt 0.632812 0.906311
vt 0.632324 0.906372
vt 0.633789 0.902222
vt 0.632812 0.903503
vt 0.632812 0.903259
vt 0.632812 0.904358
vt 0.639160 0.902100
vt 0.640625 0.904236
vt 0.640625 0.903381
vt 0.643066 0.906189
vt 0.640625 0.903137
vt 0.632812 0.901306
vt 0.633789 0.902222
vt 0.632812 0.903259
vt 0.633789 0.901245
vt 0.632324 0.906372
vt 0.632812 0.903259
vt 0.631836 0.885742
vt 0.632812 0.885742
vt 0.639160 0.901184
vt 0.640625 0.885681
vt 0.640625 0.901184
vt 0.639160 0.902100
vt 0.640625 0.903137
vt 0.642578 0.885620
vt 0.643066 0.906189
vt 0.640625 0.903137
vn 0.0000 0.0000 1.0000
vn 0.0000 0.0000 -1.0000
vn -1.0000 0.0000 0.0000
vn 1.0000 -0.0000 0.0000
vn 0.0000 0.9006 0.4346
vn -0.9570 -0.0000 0.2902
vn -0.9570 -0.0000 0.2901
vn 0.0000 -0.9006 0.4346
vn 0.9570 0.0000 0.2901
vn 0.9570 0.0000 0.2902
vn -0.0000 1.0000 0.0000
vn -0.9995 -0.0316 0.0000
vn -0.9995 -0.0315 -0.0000
vn 0.0000 -1.0000 0.0000
vn 0.9995 -0.0315 0.0000
vn 0.9995 -0.0316 0.0000
usemtl Default_OBJ.005
s 1
f 1/1/1 2/2/1 3/3/1
f 4/4/1 5/5/1 6/6/1
f 7/7/1 8/8/1 9/9/1
f 10/10/1 11/11/1 12/12/1
f 13/13/2 14/14/2 15/15/2
f 15/15/2 14/14/2 16/16/2
f 17/17/3 18/18/3 19/19/3
f 18/18/3 20/20/3 19/19/3
f 21/21/4 22/22/4 23/23/4
f 22/22/4 21/21/4 24/24/4
f 25/25/1 26/26/1 27/27/1
f 25/25/1 27/27/1 28/28/1
f 29/29/1 30/30/1 31/31/1
f 30/30/1 29/29/1 32/32/1
f 33/33/5 34/34/5 35/35/5
f 33/33/5 35/35/5 36/36/5
f 37/37/6 38/38/6 39/39/7
f 37/37/6 39/39/7 40/40/6
f 41/41/8 42/42/8 43/43/8
f 41/41/8 43/43/8 44/44/8
f 45/45/9 46/46/9 47/47/10
f 45/45/9 47/47/10 48/48/9
f 49/49/11 50/50/11 51/51/11
f 49/49/11 51/51/11 52/52/11
f 53/53/12 54/54/12 55/55/12
f 53/53/12 55/55/12 56/56/13
f 57/57/14 58/58/14 59/59/14
f 57/57/14 59/59/14 60/60/14
f 61/61/15 62/62/15 63/63/16
f 62/62/15 61/61/15 64/64/16
f 65/65/11 66/66/11 67/67/11
f 68/68/11 67/67/11 66/66/11
f 67/67/11 68/68/11 69/69/11
f 68/68/11 70/70/11 69/69/11
f 71/71/1 72/72/1 73/73/1
f 73/73/1 72/72/1 74/74/1
f 74/74/1 75/75/1 73/73/1
f 74/74/1 76/76/1 75/75/1
f 77/77/1 75/75/1 76/76/1
f 78/78/1 79/79/1 80/80/1
f 79/79/1 78/78/1 81/81/1
f 81/81/1 78/78/1 82/82/1
f 81/81/1 82/82/1 83/83/1
f 83/83/1 82/82/1 84/84/1
f 84/84/1 85/85/1 83/83/1
f 82/82/1 86/86/1 84/84/1
f 87/87/1 88/88/1 89/89/1
f 87/87/1 90/90/1 88/88/1
f 91/91/1 87/87/1 92/92/1
f 91/91/1 93/93/1 87/87/1
f 87/87/1 93/93/1 94/94/1
f 94/94/1 90/90/1 87/87/1
f 94/94/1 95/95/1 90/90/1
f 95/95/1 94/94/1 96/96/1
f 95/95/1 96/96/1 97/97/1
f 95/95/1 97/97/1 98/98/1
f 97/97/1 99/99/1 98/98/1
f 100/100/1 97/97/1 96/96/1
f 101/101/1 97/97/1 100/100/1
f 97/97/1 101/101/1 102/102/1
