# UnrealEd OBJ exporter (_Internal)



v -119.175880 0.690471 59.059616

v -119.479309 0.387040 59.059616

v -119.175880 0.387040 59.363045

v -119.233643 0.804270 -59.183010

v -118.930214 1.107700 -59.183010

v -118.930214 0.804270 -59.486439

v 119.696571 1.001773 59.450157

v 119.696571 0.698343 59.753586

v 120.000000 0.698343 59.450157

v 119.436218 0.608126 -59.395493

v 119.436218 0.911556 -59.092064

v 119.739647 0.608126 -59.092064

v -119.479309 0.387040 59.059616

v -120.237167 -0.011803 60.293964

v -119.175880 0.387040 59.363045

v -120.543282 -0.011803 59.985828

v -120.297615 -0.011803 -60.109222

v -119.233643 0.804270 -59.183010

v -119.991501 -0.011803 -60.417358

v -118.930214 0.804270 -59.486439

v 119.696571 0.698343 59.753586

v 120.757858 -0.011803 60.684505

v 120.000000 0.698343 59.450157

v 121.063972 -0.011803 60.376369

v 120.497505 -0.011803 -60.326412

v 119.739647 0.608126 -59.092064

v 120.803619 -0.011803 -60.018276

v 119.436218 0.608126 -59.395493

v -119.175880 0.690471 59.059616

v -120.817543 0.787048 0.000000

v -119.479309 0.387040 59.059616

v -120.514114 1.090478 0.000000

v -119.233643 0.804270 -59.183010

v -118.930214 1.107700 -59.183010

v 60.000000 0.928252 60.394531

v 119.696571 0.698343 59.753586

v 119.696571 1.001773 59.450157

v 60.000000 0.624821 60.697960

v 0.000000 0.814190 60.097885

v 0.000000 0.510760 60.401314

v -60.000000 1.202070 59.659695

v -60.000000 1.505500 59.356266

v -119.175880 0.690471 59.059616

v -119.175880 0.387040 59.363045

v 119.696571 0.698343 59.753586

v 60.531986 -0.011803 61.628880

v 120.757858 -0.011803 60.684505

v 60.000000 0.624821 60.697960

v 0.000000 -0.011803 61.332233

v 0.000000 0.510760 60.401314

v -60.000000 1.202070 59.659695

v -60.531986 -0.011803 60.590614

v -119.175880 0.387040 59.363045

v -120.237167 -0.011803 60.293964

v 61.089081 -0.011803 -60.963036

v 119.436218 0.608126 -59.395493

v 120.497505 -0.011803 -60.326412

v 60.557095 1.202070 -60.032116

v 0.000000 -0.011803 -60.508305

v 0.000000 0.744793 -59.577385

v -60.000000 1.202070 -59.577385

v -60.531986 -0.011803 -60.508305

v -118.930214 0.804270 -59.486439

v -119.991501 -0.011803 -60.417358

v -118.930214 1.107700 -59.183010

v -60.000000 1.202070 -59.577385

v -118.930214 0.804270 -59.486439

v -60.000000 1.505500 -59.273956

v 0.000000 1.048223 -59.273956

v 0.000000 0.744793 -59.577385

v 60.557095 1.202070 -60.032116

v 60.557095 1.505500 -59.728687

v 119.436218 0.911556 -59.092064

v 119.436218 0.608126 -59.395493

v 120.000000 0.698343 59.450157

v 120.640938 1.202070 0.000000

v 119.696571 1.001773 59.450157

v 120.337509 1.505500 0.000000

v 119.436218 0.911556 -59.092064

v 119.739647 0.608126 -59.092064

v 119.739647 0.608126 -59.092064

v 121.704910 -0.011803 0.000000

v 120.803619 -0.011803 -60.018276

v 120.640938 1.202070 0.000000

v 120.000000 0.698343 59.450157

v 121.063972 -0.011803 60.376369

v -121.881516 -0.011803 0.000000

v -119.233643 0.804270 -59.183010

v -120.297615 -0.011803 -60.109222

v -120.817543 0.787048 0.000000

v -119.479309 0.387040 59.059616

v -120.543282 -0.011803 59.985828

v -60.000000 1.505500 0.000000

v -118.930214 1.107700 -59.183010

v -120.514114 1.090478 0.000000

v -119.175880 0.690471 59.059616

v -60.000000 1.505500 -59.273956

v -60.000000 1.505500 59.356266

v 0.000000 1.505500 0.000000

v 0.000000 1.048223 -59.273956

v 0.000000 0.814190 60.097885

v 60.000000 1.505500 0.000000

v 60.557095 1.505500 -59.728687

v 60.000000 0.928252 60.394531

v 119.436218 0.911556 -59.092064

v 119.696571 1.001773 59.450157

v 120.337509 1.505500 0.000000



vt 0.029999 1.465576

vt 0.029999 1.473877

vt 0.021896 1.472656

vt 0.969727 1.473877

vt 0.969727 1.465576

vt 0.978027 1.472656

vt 0.029999 -0.465820

vt 0.022247 -0.465820

vt 0.023376 -0.472656

vt 0.977539 -0.465820

vt 0.972168 -0.467773

vt 0.977051 -0.472656

vt 0.029999 1.473877

vt 0.021225 1.497559

vt 0.021896 1.472656

vt 0.029999 1.497803

vt 0.969727 1.497803

vt 0.969727 1.473877

vt 0.978516 1.497559

vt 0.978027 1.472656

vt 0.022247 -0.465820

vt 0.000819 -0.465820

vt 0.023376 -0.472656

vt 0.001023 -0.473633

vt 0.999023 -0.465820

vt 0.977051 -0.472656

vt 0.998535 -0.472656

vt 0.977539 -0.465820

vt 0.029999 1.465576

vt 0.499268 1.473877

vt 0.029999 1.473877

vt 0.499268 1.465576

vt 0.969727 1.473877

vt 0.969727 1.465576

vt 0.029999 0.015625

vt 0.022247 -0.465820

vt 0.029999 -0.465820

vt 0.022247 0.015625

vt 0.029999 0.500244

vt 0.022247 0.500244

vt 0.022247 0.984871

vt 0.029999 0.984871

vt 0.029999 1.465576

vt 0.022247 1.465576

vt 0.022247 -0.465820

vt 0.000819 0.015625

vt 0.000819 -0.465820

vt 0.022247 0.015625

vt 0.000819 0.500244

vt 0.022247 0.500244

vt 0.022247 0.984871

vt 0.000819 0.984871

vt 0.022247 1.465576

vt 0.000819 1.465576

vt 0.999023 0.015625

vt 0.977539 -0.465820

vt 0.999023 -0.465820

vt 0.977539 0.015625

vt 0.999023 0.500244

vt 0.977539 0.500244

vt 0.977539 0.984871

vt 0.999023 0.984871

vt 0.977539 1.465576

vt 0.999023 1.465576

vt 0.969727 1.465576

vt 0.977539 0.984871

vt 0.977539 1.465576

vt 0.969727 0.984871

vt 0.969727 0.500244

vt 0.977539 0.500244

vt 0.977539 0.015625

vt 0.969727 0.015625

vt 0.969727 -0.465820

vt 0.977539 -0.465820

vt 0.029999 -0.473633

vt 0.499268 -0.473633

vt 0.029999 -0.465820

vt 0.499268 -0.465820

vt 0.969727 -0.465820

vt 0.969727 -0.473633

vt 0.969727 -0.473633

vt 0.499268 -0.498047

vt 0.969727 -0.498047

vt 0.499268 -0.473633

vt 0.029999 -0.473633

vt 0.029999 -0.498047

vt 0.499268 1.497803

vt 0.969727 1.473877

vt 0.969727 1.497803

vt 0.499268 1.473877

vt 0.029999 1.473877

vt 0.029999 1.497803

vt 0.499268 0.984871

vt 0.969727 1.465576

vt 0.499268 1.465576

vt 0.029999 1.465576

vt 0.969727 0.984871

vt 0.029999 0.984871

vt 0.499268 0.500244

vt 0.969727 0.500244

vt 0.029999 0.500244

vt 0.499268 0.015625

vt 0.969727 0.015625

vt 0.029999 0.015625

vt 0.969727 -0.465820

vt 0.029999 -0.465820

vt 0.499268 -0.465820



vn -0.574803 0.574803 0.574803

vn -0.574803 0.574803 0.574803

vn -0.574803 0.574803 0.574803

vn -0.574803 0.574803 -0.574803

vn -0.574803 0.574803 -0.574803

vn -0.574803 0.574803 -0.574803

vn 0.574803 0.574803 0.574803

vn 0.574803 0.574803 0.574803

vn 0.574803 0.574803 0.574803

vn 0.574803 0.574803 -0.574803

vn 0.574803 0.574803 -0.574803

vn 0.574803 0.574803 -0.574803

vn -0.196850 0.960630 0.188976

vn -0.196850 0.960630 0.188976

vn -0.196850 0.960630 0.188976

vn -0.196850 0.960630 0.188976

vn -0.354331 0.866142 -0.354331

vn -0.354331 0.866142 -0.354331

vn -0.354331 0.866142 -0.354331

vn -0.354331 0.866142 -0.354331

vn 0.322835 0.889764 0.314961

vn 0.322835 0.889764 0.314961

vn 0.322835 0.889764 0.314961

vn 0.322835 0.889764 0.314961

vn 0.283465 0.913386 -0.283465

vn 0.283465 0.913386 -0.283465

vn 0.283465 0.913386 -0.283465

vn 0.283465 0.913386 -0.283465

vn -0.708661 0.708661 0.023622

vn -0.708661 0.708661 0.000000

vn -0.708661 0.708661 0.023622

vn -0.708661 0.708661 0.000000

vn -0.708661 0.708661 -0.015748

vn -0.708661 0.708661 -0.015748

vn 0.000000 0.708661 0.708661

vn 0.007874 0.708661 0.708661

vn 0.007874 0.708661 0.708661

vn 0.000000 0.708661 0.708661

vn 0.000000 0.708661 0.708661

vn 0.000000 0.708661 0.708661

vn -0.007874 0.708661 0.708661

vn -0.007874 0.708661 0.708661

vn -0.015748 0.708661 0.708661

vn -0.015748 0.708661 0.708661

vn 0.007874 0.811024 0.582677

vn 0.007874 0.826772 0.566929

vn 0.007874 0.811024 0.582677

vn 0.000000 0.834646 0.551181

vn 0.000000 0.787402 0.614173

vn 0.000000 0.787402 0.614173

vn -0.007874 0.740157 0.669291

vn -0.007874 0.748031 0.661417

vn -0.007874 0.755906 0.653543

vn -0.007874 0.755906 0.653543

vn 0.000000 0.700787 -0.708661

vn 0.007874 0.716535 -0.692913

vn 0.007874 0.716535 -0.692913

vn 0.000000 0.700787 -0.716535

vn 0.000000 0.685039 -0.724409

vn 0.000000 0.685039 -0.724409

vn 0.000000 0.685039 -0.732283

vn 0.000000 0.677165 -0.732283

vn 0.000000 0.677165 -0.732283

vn 0.000000 0.677165 -0.732283

vn -0.007874 0.708661 -0.708661

vn 0.000000 0.708661 -0.708661

vn -0.007874 0.708661 -0.708661

vn 0.000000 0.708661 -0.708661

vn 0.000000 0.708661 -0.708661

vn 0.000000 0.708661 -0.708661

vn 0.000000 0.708661 -0.708661

vn 0.000000 0.708661 -0.708661

vn 0.015748 0.708661 -0.708661

vn 0.015748 0.708661 -0.708661

vn 0.708661 0.708661 0.015748

vn 0.708661 0.708661 0.000000

vn 0.708661 0.708661 0.015748

vn 0.708661 0.708661 0.000000

vn 0.708661 0.708661 -0.015748

vn 0.708661 0.708661 -0.015748

vn 0.645669 0.763780 -0.015748

vn 0.661417 0.755906 0.000000

vn 0.645669 0.763780 -0.015748

vn 0.661417 0.755906 0.000000

vn 0.669291 0.740157 0.007874

vn 0.669291 0.740157 0.007874

vn -0.543307 0.834646 0.000000

vn -0.598425 0.803150 -0.015748

vn -0.598425 0.803150 -0.015748

vn -0.543307 0.834646 0.000000

vn -0.488189 0.874016 0.015748

vn -0.488189 0.874016 0.015748

vn 0.000000 1.000000 0.000000

vn -0.007874 1.000000 0.000000

vn -0.007874 1.000000 0.000000

vn -0.007874 1.000000 0.000000

vn 0.000000 1.000000 0.000000

vn 0.000000 1.000000 0.007874

vn 0.000000 1.000000 0.000000

vn 0.000000 1.000000 0.000000

vn 0.000000 1.000000 0.007874

vn 0.000000 1.000000 0.000000

vn 0.000000 1.000000 -0.007874

vn 0.000000 1.000000 0.007874

vn 0.007874 1.000000 -0.007874

vn 0.000000 1.000000 0.007874

vn 0.000000 1.000000 0.000000

f 1/1/1 2/2/2 3/3/3

f 4/4/4 5/5/5 6/6/6

f 7/7/7 8/8/8 9/9/9

f 10/10/10 11/11/11 12/12/12

f 13/13/13 14/14/14 15/15/15

f 14/14/14 13/13/13 16/16/16

f 17/17/17 18/18/18 19/19/19

f 19/19/19 18/18/18 20/20/20

f 21/21/21 22/22/22 23/23/23

f 23/23/23 22/22/22 24/24/24

f 25/25/25 26/26/26 27/27/27

f 26/26/26 25/25/25 28/28/28

f 29/29/29 30/30/30 31/31/31

f 30/30/30 29/29/29 32/32/32

f 32/32/32 33/33/33 30/30/30

f 33/33/33 32/32/32 34/34/34

f 35/35/35 36/36/36 37/37/37

f 36/36/36 35/35/35 38/38/38

f 35/35/35 39/39/39 38/38/38

f 40/40/40 38/38/38 39/39/39

f 39/39/39 41/41/41 40/40/40

f 41/41/41 39/39/39 42/42/42

f 42/42/42 43/43/43 41/41/41

f 44/44/44 41/41/41 43/43/43

f 45/45/45 46/46/46 47/47/47

f 46/46/46 45/45/45 48/48/48

f 48/48/48 49/49/49 46/46/46

f 49/49/49 48/48/48 50/50/50

f 51/51/51 49/49/49 50/50/50

f 52/52/52 49/49/49 51/51/51

f 53/53/53 52/52/52 51/51/51

f 52/52/52 53/53/53 54/54/54

f 55/55/55 56/56/56 57/57/57

f 58/58/58 56/56/56 55/55/55

f 55/55/55 59/59/59 58/58/58

f 60/60/60 58/58/58 59/59/59

f 59/59/59 61/61/61 60/60/60

f 61/61/61 59/59/59 62/62/62

f 62/62/62 63/63/63 61/61/61

f 63/63/63 62/62/62 64/64/64

f 65/65/65 66/66/66 67/67/67

f 66/66/66 65/65/65 68/68/68

f 68/68/68 69/69/69 66/66/66

f 70/70/70 66/66/66 69/69/69

f 69/69/69 71/71/71 70/70/70

f 71/71/71 69/69/69 72/72/72

f 72/72/72 73/73/73 71/71/71

f 71/71/71 73/73/73 74/74/74

f 75/75/75 76/76/76 77/77/77

f 77/77/77 76/76/76 78/78/78

f 76/76/76 79/79/79 78/78/78

f 79/79/79 76/76/76 80/80/80

f 81/81/81 82/82/82 83/83/83

f 82/82/82 81/81/81 84/84/84

f 85/85/85 82/82/82 84/84/84

f 82/82/82 85/85/85 86/86/86

f 87/87/87 88/88/88 89/89/89

f 88/88/88 87/87/87 90/90/90

f 87/87/87 91/91/91 90/90/90

f 91/91/91 87/87/87 92/92/92

f 93/93/93 94/94/94 95/95/95

f 96/96/96 93/93/93 95/95/95

f 94/94/94 93/93/93 97/97/97

f 93/93/93 96/96/96 98/98/98

f 99/99/99 97/97/97 93/93/93

f 98/98/98 99/99/99 93/93/93

f 97/97/97 99/99/99 100/100/100

f 99/99/99 98/98/98 101/101/101

f 102/102/102 100/100/100 99/99/99

f 101/101/101 102/102/102 99/99/99

f 100/100/100 102/102/102 103/103/103

f 102/102/102 101/101/101 104/104/104

f 102/102/102 105/105/105 103/103/103

f 106/106/106 102/102/102 104/104/104

f 105/105/105 102/102/102 107/107/107

f 102/102/102 106/106/106 107/107/107

