# Blender v3.1.2 OBJ File: ''
# www.blender.org
mtllib scaledmonitor.mtl
o SM_Computer_1_Internal
v 1.483384 2.138655 -1.922305
v 1.745158 4.627197 -1.751063
v 1.745158 1.936881 -1.751064
v 1.745158 4.627197 -1.751063
v 1.483384 2.138655 -1.922305
v 1.483384 4.425424 -1.922305
v 1.745158 1.936881 -1.751064
v -1.745158 1.936881 -1.751064
v -1.483384 2.138655 -1.922305
v 1.745158 1.936881 -1.751064
v -1.483384 2.138655 -1.922305
v 1.483384 2.138655 -1.922305
v 2.879862 5.536545 0.820574
v -2.879862 5.536545 0.820574
v -2.879862 1.027533 0.820574
v 2.879862 1.027533 0.820574
v -3.250001 5.882039 0.975001
v 3.250001 5.882039 0.975001
v 3.265824 5.879237 0.516773
v -3.265824 5.879237 0.516773
v 2.291763 1.515561 -1.153522
v -2.291763 1.515561 -1.153522
v -2.291763 5.048517 -1.153522
v 2.291763 5.048517 -1.153522
v 3.250001 0.682038 0.975000
v -3.250001 0.682038 0.975000
v -3.265824 0.684841 0.516773
v 3.265824 0.684841 0.516773
v 3.265824 0.684841 0.516773
v 3.265824 5.879237 0.516773
v 3.250001 0.682038 0.975000
v 3.250001 5.882039 0.975001
v -3.250001 0.682038 0.975000
v -3.265824 5.879237 0.516773
v -3.265824 0.684841 0.516773
v -3.250001 5.882039 0.975001
v -3.265824 0.684841 0.516773
v -3.265824 5.879237 0.516773
v -2.291763 1.515561 -1.153522
v -2.291763 5.048517 -1.153522
v 3.265824 0.684841 0.516773
v -3.265824 0.684841 0.516773
v -2.291763 1.515561 -1.153522
v 2.291763 1.515561 -1.153522
v 2.291763 1.515561 -1.153522
v 3.265824 5.879237 0.516773
v 3.265824 0.684841 0.516773
v 2.291763 5.048517 -1.153522
v -3.265824 5.879237 0.516773
v 3.265824 5.879237 0.516773
v 2.291763 5.048517 -1.153522
v -2.291763 5.048517 -1.153522
v 1.745158 4.627197 -1.751063
v -2.000000 4.882039 -0.441203
v 2.000000 4.882039 -0.441203
v -1.745158 4.627197 -1.751063
v 1.483384 2.138655 -1.922305
v -1.483384 2.138655 -1.922305
v -1.483384 4.425424 -1.922305
v 1.483384 4.425424 -1.922305
v 2.000000 1.682038 -0.441203
v -2.000000 1.682038 -0.441203
v -1.745158 1.936881 -1.751064
v 1.745158 1.936881 -1.751064
v 1.745158 1.936881 -1.751064
v 1.745158 4.627197 -1.751063
v 2.000000 1.682038 -0.441203
v 2.000000 4.882039 -0.441203
v -2.000000 4.882039 -0.441203
v -1.745158 1.936881 -1.751064
v -2.000000 1.682038 -0.441203
v -1.745158 4.627197 -1.751063
v -0.318878 1.434929 -0.146012
v -0.318878 0.150000 -0.146013
v 0.318878 1.434929 -0.146012
v 0.318878 0.150000 -0.146013
v 0.318878 1.434929 -0.490974
v -0.318878 1.434929 -0.146012
v 0.318878 1.434929 -0.146012
v -0.318878 1.434929 -0.490974
v -0.318878 0.150000 -0.490974
v -0.318878 1.434929 -0.490974
v 0.318878 0.150000 -0.490974
v 0.318878 1.434929 -0.490974
v 0.318878 0.150000 -0.490974
v 0.318878 1.434929 -0.490974
v 0.318878 0.150000 -0.146013
v 0.318878 1.434929 -0.146012
v -0.318878 1.434929 -0.146012
v -0.318878 0.150000 -0.490974
v -0.318878 0.150000 -0.146013
v -0.318878 1.434929 -0.490974
v 1.092173 0.000000 -1.071141
v 0.417173 0.000000 -1.561557
v 0.417173 0.300000 -1.561557
v 1.092173 0.300000 -1.071141
v 0.417173 0.000000 -1.561557
v -0.417173 0.000000 -1.561557
v -0.417173 0.300000 -1.561557
v 0.417173 0.300000 -1.561557
v -0.417173 0.000000 -1.561557
v -1.092173 0.000000 -1.071141
v -1.092173 0.300000 -1.071141
v -0.417173 0.300000 -1.561557
v -1.350001 0.300000 -0.277630
v -1.092173 0.000000 -1.071141
v -1.350001 0.000000 -0.277630
v -1.092173 0.300000 -1.071141
v -1.092173 0.300000 0.515880
v -1.350001 0.000000 -0.277630
v -1.092173 -0.000000 0.515880
v -1.350001 0.300000 -0.277630
v -0.417173 0.300000 1.006296
v -1.092173 0.300000 0.515880
v -1.092173 -0.000000 0.515880
v -0.417173 -0.000000 1.006296
v 0.417173 0.300000 1.006296
v -0.417173 0.300000 1.006296
v -0.417173 -0.000000 1.006296
v 0.417173 -0.000000 1.006296
v 1.092173 0.300000 0.515880
v 0.417173 0.300000 1.006296
v 0.417173 -0.000000 1.006296
v 1.092173 -0.000000 0.515880
v 1.350000 0.300000 -0.277630
v 1.092173 0.300000 0.515880
v 1.092173 -0.000000 0.515880
v 1.350000 0.000000 -0.277630
v 1.092173 0.300000 -1.071141
v 1.350000 0.300000 -0.277630
v 1.350000 0.000000 -0.277630
v 1.092173 0.000000 -1.071141
v 2.879862 1.027533 0.820574
v -2.979167 0.949792 0.975000
v 2.979167 0.949792 0.975000
v -2.879862 1.027533 0.820574
v 2.979167 5.614285 0.975001
v 2.879862 1.027533 0.820574
v 2.979167 0.949792 0.975000
v 2.879862 5.536545 0.820574
v -2.879862 5.536545 0.820574
v 2.979167 5.614285 0.975001
v -2.979167 5.614285 0.975001
v 2.879862 5.536545 0.820574
v -2.979167 5.614285 0.975001
v -2.979167 0.949792 0.975000
v -2.879862 1.027533 0.820574
v -2.879862 5.536545 0.820574
v -1.745158 4.627197 -1.751063
v 1.745158 4.627197 -1.751063
v 1.483384 4.425424 -1.922305
v -1.483384 4.425424 -1.922305
v -1.483384 4.425424 -1.922305
v -1.483384 2.138655 -1.922305
v -1.745158 1.936881 -1.751064
v -1.745158 4.627197 -1.751063
v -0.417173 0.300000 -1.561557
v 1.092173 0.300000 -1.071141
v 0.417173 0.300000 -1.561557
v 1.350000 0.300000 -0.277630
v -1.092173 0.300000 -1.071141
v -1.350001 0.300000 -0.277630
v 1.092173 0.300000 0.515880
v -0.417173 0.300000 1.006296
v -1.092173 0.300000 0.515880
v 0.417173 0.300000 1.006296
v -3.250001 0.682038 0.975000
v 3.250001 0.682038 0.975000
v 2.979167 0.949792 0.975000
v -2.979167 0.949792 0.975000
v 2.979167 5.614285 0.975001
v -3.250001 5.882039 0.975001
v 3.250001 5.882039 0.975001
v -2.979167 5.614285 0.975001
vt 0.776855 0.840698
vt 0.777344 0.840698
vt 0.776855 0.840698
vt 0.777344 0.840698
vt 0.776855 0.840698
vt 0.777344 0.840698
vt 0.776855 0.840698
vt 0.777344 0.840698
vt 0.777344 0.840698
vt 0.776855 0.840698
vt 0.777344 0.840698
vt 0.776855 0.840698
vt 0.807129 0.991783
vt 0.753906 0.991806
vt 0.753906 0.949249
vt 0.807129 0.949249
vt 0.769531 0.868652
vt 0.769531 0.821289
vt 0.772461 0.821167
vt 0.772461 0.868774
vt 0.791016 0.828613
vt 0.789062 0.860352
vt 0.767578 0.859131
vt 0.767578 0.828003
vt 0.788574 0.821289
vt 0.788574 0.868652
vt 0.785156 0.868774
vt 0.785156 0.821167
vt 0.778320 0.822510
vt 0.778320 0.860474
vt 0.774902 0.822510
vt 0.774902 0.860474
vt 0.774414 0.822510
vt 0.770996 0.860474
vt 0.770996 0.822510
vt 0.774414 0.860474
vt 0.791992 0.872803
vt 0.761230 0.866211
vt 0.789062 0.860352
vt 0.767578 0.859131
vt 0.785156 0.821167
vt 0.785156 0.868774
vt 0.771484 0.861694
vt 0.771484 0.828247
vt 0.791016 0.828613
vt 0.762695 0.814941
vt 0.796387 0.815796
vt 0.767578 0.828003
vt 0.772461 0.868774
vt 0.772461 0.821167
vt 0.786133 0.828247
vt 0.786133 0.861694
vt 0.797852 0.856567
vt 0.774414 0.848389
vt 0.799805 0.848389
vt 0.775879 0.856567
vt 0.776855 0.840698
vt 0.777344 0.840698
vt 0.777344 0.840698
vt 0.777344 0.840698
vt 0.774414 0.848145
vt 0.799805 0.848145
vt 0.797852 0.856567
vt 0.775879 0.856567
vt 0.792969 0.864990
vt 0.776367 0.865112
vt 0.794922 0.856812
vt 0.774414 0.856689
vt 0.794922 0.856689
vt 0.776367 0.865112
vt 0.774414 0.856812
vt 0.792969 0.865112
vt 0.781250 0.823364
vt 0.803711 0.825562
vt 0.780273 0.834595
vt 0.803711 0.835205
vt 0.775879 0.819824
vt 0.805176 0.835693
vt 0.775879 0.835693
vt 0.805176 0.819824
vt 0.800781 0.835083
vt 0.778809 0.835205
vt 0.801758 0.823364
vt 0.777832 0.823242
vt 0.803223 0.841553
vt 0.779785 0.841064
vt 0.803711 0.835205
vt 0.780273 0.834595
vt 0.778809 0.837646
vt 0.800781 0.835083
vt 0.800293 0.840942
vt 0.778809 0.835205
vt 0.800781 0.849243
vt 0.800781 0.858154
vt 0.798340 0.857300
vt 0.798340 0.850220
vt 0.800781 0.858154
vt 0.795410 0.865356
vt 0.793945 0.863159
vt 0.798340 0.857300
vt 0.795410 0.865356
vt 0.787109 0.868042
vt 0.787109 0.865356
vt 0.793945 0.863159
vt 0.780273 0.863159
vt 0.787109 0.868042
vt 0.778809 0.865356
vt 0.787109 0.865356
vt 0.775879 0.857300
vt 0.778809 0.865356
vt 0.773438 0.858154
vt 0.780273 0.863159
vt 0.775879 0.850098
vt 0.775879 0.857300
vt 0.773438 0.858154
vt 0.773438 0.849365
vt 0.780273 0.844238
vt 0.775879 0.850098
vt 0.773438 0.849365
vt 0.778809 0.841919
vt 0.787109 0.841919
vt 0.780273 0.844238
vt 0.778809 0.841919
vt 0.787109 0.839111
vt 0.793945 0.844238
vt 0.787109 0.841919
vt 0.787109 0.839111
vt 0.795898 0.841919
vt 0.798340 0.850220
vt 0.793945 0.844238
vt 0.795898 0.841919
vt 0.800781 0.849243
vt 0.781738 0.823242
vt 0.780273 0.865967
vt 0.780273 0.822510
vt 0.781738 0.865234
vt 0.797363 0.824341
vt 0.763672 0.825684
vt 0.763184 0.824341
vt 0.796875 0.825684
vt 0.778320 0.865234
vt 0.779785 0.822510
vt 0.779785 0.865967
vt 0.778320 0.823242
vt 0.797363 0.868164
vt 0.763184 0.867920
vt 0.763672 0.866577
vt 0.796875 0.866821
vt 0.777344 0.840698
vt 0.777344 0.840698
vt 0.777344 0.840698
vt 0.777344 0.840698
vt 0.777344 0.840698
vt 0.777344 0.840698
vt 0.777344 0.840698
vt 0.777344 0.840698
vt 0.793945 0.863159
vt 0.798340 0.850220
vt 0.798340 0.857300
vt 0.793945 0.844238
vt 0.787109 0.865356
vt 0.780273 0.863159
vt 0.787109 0.841919
vt 0.775879 0.850098
vt 0.775879 0.857300
vt 0.780273 0.844238
vt 0.761230 0.869873
vt 0.761230 0.822266
vt 0.763184 0.824341
vt 0.763184 0.867920
vt 0.797363 0.824341
vt 0.799316 0.870117
vt 0.799316 0.822266
vt 0.797363 0.868164
vn 0.5511 0.0000 -0.8345
vn 0.0000 -0.6456 -0.7637
vn 0.0000 -0.6457 -0.7636
vn 0.0000 -0.0000 1.0000
vn 0.0000 1.0000 -0.0079
vn -0.0000 1.0000 -0.0078
vn 0.0000 0.0000 -1.0000
vn -0.0000 -1.0000 -0.0079
vn -0.0000 -1.0000 -0.0078
vn 0.9995 -0.0000 0.0315
vn -0.9995 0.0000 0.0315
vn -0.8644 0.0000 -0.5028
vn -0.0000 -0.8944 -0.4472
vn 0.0000 -0.8945 -0.4472
vn 0.8644 0.0000 -0.5028
vn 0.8644 -0.0000 -0.5029
vn 0.0000 0.8944 -0.4472
vn 0.0000 0.8945 -0.4472
vn 0.0000 0.9821 -0.1886
vn 0.0000 0.9820 -0.1886
vn 0.0000 -0.9821 -0.1886
vn -0.0000 -0.9820 -0.1886
vn 0.9821 -0.0000 -0.1886
vn -0.9821 0.0000 -0.1886
vn -0.9821 0.0000 -0.1885
vn 0.0000 1.0000 0.0000
vn 1.0000 -0.0000 0.0000
vn -1.0000 0.0000 0.0000
vn 0.5886 0.0000 -0.8085
vn 0.5887 -0.0000 -0.8083
vn 0.5887 -0.0000 -0.8084
vn -0.5886 -0.0000 -0.8085
vn -0.5886 0.0000 -0.8084
vn -0.5887 -0.0000 -0.8084
vn -0.5887 -0.0000 -0.8083
vn -0.9518 0.0000 -0.3068
vn -0.9518 0.0000 -0.3067
vn -0.9518 -0.0000 0.3068
vn -0.5887 -0.0000 0.8084
vn -0.5888 -0.0000 0.8083
vn 0.5887 -0.0000 0.8084
vn 0.5887 0.0000 0.8083
vn 0.9518 0.0000 0.3068
vn 0.9518 0.0000 -0.3068
vn -0.0000 0.8929 0.4503
vn 0.0000 0.8928 0.4504
vn -0.8404 -0.0000 0.5420
vn -0.8404 -0.0000 0.5419
vn 0.0000 -0.8928 0.4504
vn -0.0000 -0.8929 0.4503
vn 0.8405 -0.0000 0.5419
vn 0.8404 -0.0000 0.5420
vn 0.8404 -0.0000 0.5419
vn 0.0000 0.6456 -0.7636
vn -0.5511 -0.0000 -0.8345
vn -0.5510 0.0000 -0.8345
usemtl Default_OBJ.004
s 1
f 1/1/1 2/2/1 3/3/1
f 4/4/1 5/5/1 6/6/1
f 7/7/2 8/8/2 9/9/2
f 10/10/3 11/11/3 12/12/3
f 13/13/4 14/14/4 15/15/4
f 13/13/4 15/15/4 16/16/4
f 17/17/5 18/18/6 19/19/5
f 17/17/5 19/19/5 20/20/6
f 21/21/7 22/22/7 23/23/7
f 21/21/7 23/23/7 24/24/7
f 25/25/8 26/26/8 27/27/9
f 25/25/8 27/27/9 28/28/9
f 29/29/10 30/30/10 31/31/10
f 32/32/10 31/31/10 30/30/10
f 33/33/11 34/34/11 35/35/11
f 34/34/11 33/33/11 36/36/11
f 37/37/12 38/38/12 39/39/12
f 39/39/12 38/38/12 40/40/12
f 41/41/13 42/42/13 43/43/13
f 41/41/13 43/43/13 44/44/14
f 45/45/15 46/46/16 47/47/15
f 46/46/16 45/45/15 48/48/15
f 49/49/17 50/50/17 51/51/18
f 49/49/17 51/51/18 52/52/18
f 53/53/19 54/54/19 55/55/20
f 54/54/19 53/53/19 56/56/19
f 57/57/7 58/58/7 59/59/7
f 57/57/7 59/59/7 60/60/7
f 61/61/21 62/62/22 63/63/22
f 61/61/21 63/63/22 64/64/21
f 65/65/23 66/66/23 67/67/23
f 68/68/23 67/67/23 66/66/23
f 69/69/24 70/70/24 71/71/25
f 70/70/24 69/69/24 72/72/24
f 73/73/4 74/74/4 75/75/4
f 75/75/4 74/74/4 76/76/4
f 77/77/26 78/78/26 79/79/26
f 78/78/26 77/77/26 80/80/26
f 81/81/7 82/82/7 83/83/7
f 83/83/7 82/82/7 84/84/7
f 85/85/27 86/86/27 87/87/27
f 88/88/27 87/87/27 86/86/27
f 89/89/28 90/90/28 91/91/28
f 90/90/28 89/89/28 92/92/28
f 93/93/29 94/94/30 95/95/29
f 93/93/29 95/95/29 96/96/31
f 97/97/7 98/98/7 99/99/7
f 97/97/7 99/99/7 100/100/7
f 101/101/32 102/102/33 103/103/34
f 101/101/32 103/103/34 104/104/35
f 105/105/36 106/106/36 107/107/37
f 106/106/36 105/105/36 108/108/36
f 109/109/38 110/110/38 111/111/38
f 110/110/38 109/109/38 112/112/38
f 113/113/39 114/114/40 115/115/39
f 113/113/39 115/115/39 116/116/39
f 117/117/4 118/118/4 119/119/4
f 117/117/4 119/119/4 120/120/4
f 121/121/41 122/122/42 123/123/41
f 121/121/41 123/123/41 124/124/41
f 125/125/43 126/126/43 127/127/43
f 127/127/43 128/128/43 125/125/43
f 129/129/44 130/130/44 131/131/44
f 131/131/44 132/132/44 129/129/44
f 133/133/45 134/134/46 135/135/46
f 134/134/46 133/133/45 136/136/45
f 137/137/47 138/138/48 139/139/47
f 138/138/48 137/137/47 140/140/47
f 141/141/49 142/142/50 143/143/49
f 142/142/50 141/141/49 144/144/49
f 145/145/51 146/146/52 147/147/53
f 145/145/51 147/147/53 148/148/52
f 149/149/54 150/150/54 151/151/54
f 149/149/54 151/151/54 152/152/54
f 153/153/55 154/154/55 155/155/56
f 155/155/56 156/156/55 153/153/55
f 157/157/26 158/158/26 159/159/26
f 158/158/26 157/157/26 160/160/26
f 161/161/26 160/160/26 157/157/26
f 160/160/26 161/161/26 162/162/26
f 162/162/26 163/163/26 160/160/26
f 164/164/26 163/163/26 162/162/26
f 164/164/26 162/162/26 165/165/26
f 163/163/26 164/164/26 166/166/26
f 167/167/4 168/168/4 169/169/4
f 167/167/4 169/169/4 170/170/4
f 168/168/4 171/171/4 169/169/4
f 172/172/4 167/167/4 170/170/4
f 168/168/4 173/173/4 171/171/4
f 172/172/4 170/170/4 174/174/4
f 173/173/4 174/174/4 171/171/4
f 174/174/4 173/173/4 172/172/4
