# Blender v3.1.2 OBJ File: ''
# www.blender.org
mtllib scaledrug.mtl
o SM_Carpet_1B_Internal.001
v 2.918691 -0.001220 6.081406
v 6.800595 0.162782 4.650467
v -2.674610 0.082200 5.671692
v -4.949471 0.097398 2.901026
v 1.048449 0.027187 4.798942
v 0.121475 0.170852 0.949533
v -4.949471 0.097398 2.901026
v 0.121475 0.170852 0.949533
v -8.637790 0.016012 1.123954
v -2.685571 0.015554 -1.716974
v 8.749714 0.244873 0.873902
v 10.061297 0.137846 -2.000474
v -2.685571 0.015554 -1.716974
v -0.308349 0.159513 -3.977004
v -6.624003 0.168016 -2.211822
v -10.924701 0.117586 -2.924863
v -0.308349 0.159513 -3.977004
v 1.844861 0.128491 -5.347854
v -10.924701 0.117586 -2.924863
v -11.457155 0.127915 -0.837689
v -6.624003 0.168016 -2.211822
v -11.445654 0.207440 0.374271
v 0.897287 0.049616 0.191484
v -11.457155 0.127915 -0.837689
v 8.749714 0.244873 0.873902
v 11.489099 0.177842 -1.424893
v 10.061297 0.137846 -2.000474
v 10.525778 0.077296 -4.387650
v 11.505571 0.065620 -5.127738
v 8.199661 0.128092 -6.058941
v -11.445654 0.207440 0.374271
v -8.637790 0.016012 1.123954
v 0.897287 0.049616 0.191484
v 3.379606 0.133586 2.773177
v 4.576359 0.042958 3.651805
v 8.414882 0.037161 2.890008
v 0.121475 0.170852 0.949533
v 0.897287 0.049616 0.191484
v -8.637790 0.016012 1.123954
v 2.918691 -0.001220 6.081406
v 7.670533 0.047875 6.092910
v 6.800595 0.162782 4.650467
v 0.897287 0.049616 0.191484
v 8.749714 0.244873 0.873902
v -2.685571 0.015554 -1.716974
v -0.308349 0.159513 -3.977004
v 10.061297 0.137846 -2.000474
v 10.525778 0.077296 -4.387650
v -2.685571 0.015554 -1.716974
v 10.061297 0.137846 -2.000474
v -0.308349 0.159513 -3.977004
v -2.674610 0.082200 5.671692
v 6.800595 0.162782 4.650467
v 1.048449 0.027187 4.798942
v 1.048449 0.027187 4.798942
v 6.800595 0.162782 4.650467
v 4.576359 0.042958 3.651805
v -10.924701 0.117586 -2.924863
v -8.883892 0.157160 -5.079194
v -11.356099 0.081904 -5.548306
v 1.048449 0.027187 4.798942
v 3.379606 0.133586 2.773177
v 0.121475 0.170852 0.949533
v 0.121475 0.170852 0.949533
v 8.414882 0.037161 2.890008
v 8.749714 0.244873 0.873902
v 3.379606 0.133586 2.773177
v 8.414882 0.037161 2.890008
v 0.121475 0.170852 0.949533
v -8.883892 0.157160 -5.079194
v 1.844861 0.128491 -5.347854
v 2.978872 0.034658 -6.092726
v -6.624003 0.168016 -2.211822
v -0.308349 0.159513 -3.977004
v -10.924701 0.117586 -2.924863
v 1.048449 0.027187 4.798942
v 4.576359 0.042958 3.651805
v 3.379606 0.133586 2.773177
v 10.061297 0.137846 -2.000474
v 10.825624 0.034923 -2.561397
v 10.525778 0.077296 -4.387650
v 0.121475 0.170852 0.949533
v 8.749714 0.244873 0.873902
v 0.897287 0.049616 0.191484
v -10.924701 0.117586 -2.924863
v 1.844861 0.128491 -5.347854
v -8.883892 0.157160 -5.079194
v -11.457155 0.127915 -0.837689
v -2.685571 0.015554 -1.716974
v -6.624003 0.168016 -2.211822
v -11.457155 0.127915 -0.837689
v 0.897287 0.049616 0.191484
v -2.685571 0.015554 -1.716974
v -4.074636 0.032690 5.886742
v 2.918691 -0.001220 6.081406
v -2.674610 0.082200 5.671692
v -2.674610 0.082200 5.671692
v 1.048449 0.027187 4.798942
v -4.949471 0.097398 2.901026
v 4.576359 0.042958 3.651805
v 6.800595 0.162782 4.650467
v 10.403575 0.027497 3.375534
v 4.576359 0.042958 3.651805
v 10.403575 0.027497 3.375534
v 8.414882 0.037161 2.890008
v -8.883892 0.157160 -5.079194
v 2.978872 0.034658 -6.092726
v -3.476859 0.114737 -6.082831
v -11.432389 0.145694 3.358848
v -10.148798 0.094922 4.959400
v -2.674610 0.082200 5.671692
v -0.308349 0.159513 -3.977004
v 10.525778 0.077296 -4.387650
v 1.844861 0.128491 -5.347854
v 10.525778 0.077296 -4.387650
v 8.199661 0.128092 -6.058941
v 1.844861 0.128491 -5.347854
v -2.674610 0.082200 5.671692
v -4.949471 0.097398 2.901026
v -11.432389 0.145694 3.358848
v -11.432389 0.145694 3.358848
v -4.949471 0.097398 2.901026
v -11.271557 0.037024 2.415127
v 1.844861 0.128491 -5.347854
v 8.199661 0.128092 -6.058941
v 5.973944 0.063074 -6.186749
v 7.670533 0.047875 6.092910
v 9.045969 0.027293 5.582832
v 6.800595 0.162782 4.650467
v 1.844861 0.128491 -5.347854
v 5.973944 0.063074 -6.186749
v 2.978872 0.034658 -6.092726
v -8.883892 0.157160 -5.079194
v -3.476859 0.114737 -6.082831
v -7.303185 0.022652 -6.076493
v 10.403575 0.027497 3.375534
v 11.523829 0.231446 1.328848
v 8.749714 0.244873 0.873902
v 8.414882 0.037161 2.890008
v 10.403575 0.027497 3.375534
v 8.749714 0.244873 0.873902
v -4.949471 0.097398 2.901026
v -8.637790 0.016012 1.123954
v -11.458034 0.045877 1.544540
v -11.271557 0.037024 2.415127
v -4.949471 0.097398 2.901026
v -11.458034 0.045877 1.544540
vt 0.889160 0.797363
vt 0.896484 0.789551
vt 0.891113 0.826172
vt 0.905762 0.838135
vt 0.895508 0.807129
vt 0.916016 0.811890
vt 0.905762 0.838135
vt 0.916016 0.811890
vt 0.915039 0.840820
vt 0.929688 0.826416
vt 0.916016 0.782349
vt 0.931152 0.760254
vt 0.929688 0.826416
vt 0.941406 0.814087
vt 0.932129 0.846924
vt 0.936035 0.871948
vt 0.941406 0.814087
vt 0.948730 0.802979
vt 0.936035 0.871948
vt 0.925293 0.871948
vt 0.932129 0.846924
vt 0.918457 0.871826
vt 0.919922 0.807861
vt 0.925293 0.871948
vt 0.916016 0.782349
vt 0.928223 0.752930
vt 0.931152 0.760254
vt 0.943359 0.757935
vt 0.947266 0.752808
vt 0.952148 0.769897
vt 0.918457 0.871826
vt 0.915039 0.840820
vt 0.919922 0.807861
vt 0.906250 0.794922
vt 0.901855 0.788696
vt 0.905762 0.768799
vt 0.916016 0.811890
vt 0.919922 0.807861
vt 0.915039 0.840820
vt 0.889160 0.797363
vt 0.889160 0.772705
vt 0.896484 0.789551
vt 0.919922 0.807861
vt 0.916016 0.782349
vt 0.929688 0.826416
vt 0.941406 0.814087
vt 0.931152 0.760254
vt 0.943359 0.757935
vt 0.929688 0.826416
vt 0.931152 0.760254
vt 0.941406 0.814087
vt 0.891113 0.826172
vt 0.896484 0.789551
vt 0.895508 0.807129
vt 0.895508 0.807129
vt 0.896484 0.789551
vt 0.901855 0.788696
vt 0.936035 0.871948
vt 0.947266 0.858643
vt 0.949707 0.871460
vt 0.895508 0.807129
vt 0.906250 0.794922
vt 0.916016 0.811890
vt 0.916016 0.811890
vt 0.905762 0.768799
vt 0.916016 0.782349
vt 0.906250 0.794922
vt 0.905762 0.768799
vt 0.916016 0.811890
vt 0.947266 0.858643
vt 0.948730 0.802979
vt 0.952148 0.796997
vt 0.932129 0.846924
vt 0.941406 0.814087
vt 0.936035 0.871948
vt 0.895508 0.807129
vt 0.901855 0.788696
vt 0.906250 0.794922
vt 0.931152 0.760254
vt 0.933594 0.753052
vt 0.943359 0.757935
vt 0.916016 0.811890
vt 0.916016 0.782349
vt 0.919922 0.807861
vt 0.936035 0.871948
vt 0.948730 0.802979
vt 0.947266 0.858643
vt 0.925293 0.871948
vt 0.929688 0.826416
vt 0.932129 0.846924
vt 0.925293 0.871948
vt 0.919922 0.807861
vt 0.929688 0.826416
vt 0.889160 0.844238
vt 0.889160 0.797363
vt 0.891113 0.826172
vt 0.891113 0.826172
vt 0.895508 0.807129
vt 0.905762 0.838135
vt 0.901855 0.788696
vt 0.896484 0.789551
vt 0.903320 0.752930
vt 0.901855 0.788696
vt 0.903320 0.752930
vt 0.905762 0.768799
vt 0.947266 0.858643
vt 0.952148 0.796997
vt 0.952148 0.830566
vt 0.904297 0.871826
vt 0.897461 0.871948
vt 0.891113 0.826172
vt 0.941406 0.814087
vt 0.943359 0.757935
vt 0.948730 0.802979
vt 0.943359 0.757935
vt 0.952148 0.769897
vt 0.948730 0.802979
vt 0.891113 0.826172
vt 0.905762 0.838135
vt 0.904297 0.871826
vt 0.904297 0.871826
vt 0.905762 0.838135
vt 0.909180 0.871948
vt 0.948730 0.802979
vt 0.952148 0.769897
vt 0.952637 0.781494
vt 0.889160 0.772705
vt 0.891602 0.753052
vt 0.896484 0.789551
vt 0.948730 0.802979
vt 0.952637 0.781494
vt 0.952148 0.796997
vt 0.947266 0.858643
vt 0.952148 0.830566
vt 0.952148 0.850342
vt 0.903320 0.752930
vt 0.914062 0.752686
vt 0.916016 0.782349
vt 0.905762 0.768799
vt 0.903320 0.752930
vt 0.916016 0.782349
vt 0.905762 0.838135
vt 0.915039 0.840820
vt 0.915039 0.871948
vt 0.909180 0.871948
vt 0.905762 0.838135
vt 0.915039 0.871948
vn 0.0079 0.9920 0.1259
vn -0.0000 0.9992 0.0392
vn -0.0158 0.9998 -0.0079
vn -0.0079 0.9992 -0.0394
vn 0.0237 0.9952 0.0948
vn -0.0079 0.9995 -0.0315
vn -0.0079 0.9999 -0.0079
vn 0.0078 0.9980 -0.0629
vn -0.0079 0.9992 -0.0393
vn 0.0157 0.9998 0.0079
vn 0.0157 0.9819 0.1886
vn 0.0158 0.9968 0.0786
vn -0.0236 0.9832 -0.1809
vn -0.0078 0.9962 0.0863
vn -0.0315 0.9990 0.0315
vn 0.0079 0.9997 -0.0236
vn -0.0079 0.9985 0.0550
vn -0.0315 0.9830 -0.1809
vn -0.0236 0.9977 -0.0629
vn -0.0314 0.9995 -0.0079
vn -0.0079 0.9992 0.0393
vn -0.0079 0.9947 0.1025
vn 0.0158 0.9998 -0.0157
vn 0.0002 0.9920 -0.1260
vn 0.0236 0.9966 0.0785
vn 0.1337 0.9910 0.0000
vn -0.0080 0.9861 -0.1658
vn 0.0000 0.9997 0.0236
vn 0.0237 0.9936 0.1104
vn 0.0079 0.9995 -0.0315
vn -0.0000 0.9771 0.2128
vn 0.0158 0.9998 -0.0079
vn -0.0000 0.9939 -0.1104
vn -0.0000 1.0000 0.0079
vn 0.0157 0.9996 0.0236
vn -0.0000 0.9995 0.0315
vn 0.0079 0.9999 -0.0079
vn 0.0078 1.0000 -0.0001
vn 0.0000 0.9930 -0.1183
vn -0.0157 0.9847 -0.1733
vn 0.0393 0.9977 0.0550
vn -0.0157 0.9887 -0.1491
vn -0.0236 0.9846 -0.1733
vn -0.0080 0.9955 0.0948
vn -0.0158 0.9946 0.1026
vn -0.0000 0.9985 -0.0550
vn -0.0079 0.9998 0.0158
usemtl Default_OBJ.007
s 1
f 1/1/1 2/2/1 3/3/1
f 4/4/2 5/5/2 6/6/2
f 7/7/3 8/8/3 9/9/3
f 10/10/4 11/11/4 12/12/4
f 13/13/5 14/14/5 15/15/5
f 16/16/6 17/17/6 18/18/6
f 19/19/7 20/20/7 21/21/7
f 22/22/8 23/23/8 24/24/8
f 25/25/9 26/26/9 27/27/9
f 28/28/10 29/29/10 30/30/10
f 31/31/11 32/32/11 33/33/11
f 34/34/12 35/35/12 36/36/12
f 37/37/13 38/38/13 39/39/13
f 40/40/14 41/41/14 42/42/14
f 43/43/15 44/44/15 45/45/15
f 46/46/16 47/47/16 48/48/16
f 49/49/17 50/50/17 51/51/17
f 52/52/18 53/53/18 54/54/18
f 55/55/19 56/56/19 57/57/19
f 58/58/20 59/59/20 60/60/20
f 61/61/21 62/62/21 63/63/21
f 64/64/22 65/65/22 66/66/22
f 67/67/23 68/68/23 69/69/23
f 70/70/24 71/71/24 72/72/24
f 73/73/6 74/74/6 75/75/6
f 76/76/25 77/77/25 78/78/25
f 79/79/26 80/80/26 81/81/26
f 82/82/27 83/83/27 84/84/27
f 85/85/28 86/86/28 87/87/28
f 88/88/29 89/89/29 90/90/29
f 91/91/30 92/92/30 93/93/30
f 94/94/31 95/95/31 96/96/31
f 97/97/32 98/98/32 99/99/32
f 100/100/33 101/101/33 102/102/33
f 103/103/34 104/104/34 105/105/34
f 106/106/35 107/107/35 108/108/35
f 109/109/36 110/110/36 111/111/36
f 112/112/37 113/113/37 114/114/37
f 115/115/28 116/116/28 117/117/28
f 118/118/38 119/119/38 120/120/38
f 121/121/39 122/122/39 123/123/39
f 124/124/40 125/125/40 126/126/40
f 127/127/41 128/128/41 129/129/41
f 130/130/42 131/131/42 132/132/42
f 133/133/43 134/134/43 135/135/43
f 136/136/44 137/137/44 138/138/44
f 139/139/45 140/140/45 141/141/45
f 142/142/46 143/143/46 144/144/46
f 145/145/47 146/146/47 147/147/47
